<svg width="139" height="42" viewBox="0 0 139 42" fill="none" xmlns="http://www.w3.org/2000/svg">
	<g id="Group 6">
		<g id="Group 8">
			<path id="Vector" d="M46.6746 27.6966H58.7663V33H41V4H46.6727V27.6966H46.6746Z" fill="black" />
			<path id="Vector_2"
				d="M66.6138 42H61.0221L64.2109 32.8176L56.7592 12H62.5148L66.6552 24.9644L67.0699 26.793L67.4845 24.9644L71.625 12H77.3806L66.6138 42Z"
				fill="black" />
			<path id="Vector_3"
				d="M90.032 11.6652C92.2408 11.6652 93.9238 12.362 95.0847 13.7557C96.2437 15.1495 96.8242 17.0592 96.8242 19.487V33H91.4813V20.6452C91.4813 18.1346 90.4599 16.8784 88.417 16.8784C87.3409 16.8784 86.457 17.3135 85.7672 18.1818C85.0774 19.05 84.7325 20.3269 84.7325 22.0088V33H79.3915V12H83.9881L84.3613 14.8499C84.8851 13.9121 85.6315 13.1474 86.5983 12.5541C87.5613 11.9609 88.7071 11.6652 90.032 11.6652Z"
				fill="black" />
			<path id="Vector_4"
				d="M106.183 20.6304L112.353 12H118.69L112.561 20.9184L119.808 33H113.678L108.791 24.9862L106.183 28.3151V33H100.843V3H106.183V20.6304Z"
				fill="black" />
			<path id="Vector_5"
				d="M138.463 15.9772L128.939 28.3198H139V33H121.814V28.9832L131.341 16.6803H121.857V12H138.463V15.9772Z"
				fill="black" />
		</g>
		<g id="Group 7">
			<path id="Vector_6"
				d="M12.8313 12.9446L7.11474 5.98079L18.9136 3.90188C18.9191 3.90001 18.9246 3.90188 18.9301 3.90001C19.3273 3.83103 19.7262 3.83476 20.1159 3.88882C21.0598 4.0212 21.9426 4.49292 22.5743 5.24617L29.6817 13.903L34 13.1422L25.4963 2.78318C23.7859 0.728521 21.0672 -0.377119 18.2597 0.116969L0 3.33507L11.3315 17.1379L12.8313 12.9446Z"
				fill="#A0B43B" />
			<path id="Vector_7"
				d="M19.8667 27.5341L22.9235 26.9951C23.3206 26.9244 23.6937 26.7845 24.0428 26.5999L15.65 16.377L14.1501 20.5701L19.8667 27.5341Z"
				fill="#75832B" />
			<path id="Vector_8"
				d="M29.4748 25.8L33.9999 13.1457L29.8681 13.8729V13.871L15.6497 16.3769L18.4462 19.7833L28.1929 18.0661L25.8989 24.4818C25.5591 25.4066 24.8849 26.1524 24.0427 26.5998C23.6954 26.7845 23.3205 26.9224 22.9234 26.9951C22.9179 26.997 22.9123 26.9989 22.9068 26.9989L11.108 29.0759L14.15 20.5683L15.6497 16.375L20.1158 3.88483C19.7261 3.83076 19.3272 3.82704 18.9301 3.89602L15.8732 4.43672L12.8313 12.9444L11.3314 17.1376L5.3009 34L23.5606 30.7856C26.3681 30.2897 28.5549 28.3189 29.4748 25.8Z"
				fill="#495247" />
		</g>
	</g>
</svg>